<?xml version="1.0" encoding="UTF-8"?>
<svg id="Calque_1" data-name="Calque 1" xmlns="http://www.w3.org/2000/svg" viewBox="0 0 300 70">
  <defs>
    <style>
      .cls-1 {
        fill: #fff;
      }

      .cls-2 {
        fill: #90162e;
      }
    </style>
  </defs>
  <g>
    <polygon class="cls-2" points="65.63 26.1 65.63 43.86 47.91 43.88 47.9 26.1 30.33 26.1 30.33 8.48 47.91 8.48 65.63 26.1"/>
    <path class="cls-2" d="m47.91,43.88l-.05,17.63-17.63-.05-17.67-17.69.11-35.26,17.61,17.53.06.06v.06s0,.03,0,.03c-.03,9.74,7.84,17.65,17.57,17.69h0Z"/>
  </g>
  <g>
    <path class="cls-1" d="m89.74,25.2c.08.22.23.37.45.45.22.08.58.12,1.08.12h.98c1.5,0,2.79-.4,3.88-1.19,1.09-.8,1.82-1.87,2.19-3.24,0-.04.04-.06.12-.06.04,0,.08.01.13.04.05.03.07.05.07.07-.17,1.9-.26,3.48-.26,4.75,0,.15-.03.26-.1.33s-.18.1-.33.1h-13.58s-.06-.06-.06-.17.02-.17.06-.17c.61,0,1.06-.05,1.34-.14.28-.1.47-.28.58-.56.11-.28.16-.7.16-1.28v-13.32c0-.58-.05-1-.16-1.27-.11-.27-.3-.46-.59-.56-.29-.11-.73-.16-1.32-.16-.04,0-.06-.06-.06-.17s.02-.17.06-.17l1.47.03c.88.04,1.61.06,2.19.06s1.3-.02,2.19-.06l1.47-.03c.06,0,.09.06.09.17s-.03.17-.09.17c-.59,0-1.04.05-1.32.16-.29.11-.48.3-.58.58-.1.28-.14.7-.14,1.28v13.18c0,.5.04.86.11,1.08Z"/>
    <path class="cls-1" d="m99.98,26.39c0-.12.02-.17.06-.17.56,0,.96-.05,1.21-.14.25-.1.42-.28.52-.56.1-.28.14-.7.14-1.28v-8.8c0-.58-.05-1-.14-1.27-.1-.27-.27-.46-.53-.56-.26-.11-.66-.16-1.19-.16-.04,0-.06-.06-.06-.17s.02-.17.06-.17h10.3c.19,0,.29.08.29.23l.03,1.78c.02.36.03.82.03,1.38,0,.06-.05.09-.16.09s-.17-.03-.19-.09c-.36-.84-.92-1.56-1.67-2.14-.75-.58-1.51-.88-2.27-.88h-.2c-.42,0-.73.05-.94.16-.2.11-.34.29-.4.56-.07.27-.1.69-.1,1.27v8.66c0,.58.03,1,.1,1.27.07.27.2.46.4.56.2.11.51.16.93.16h.32c.9,0,1.79-.32,2.68-.96.88-.64,1.53-1.44,1.96-2.4.04-.06.11-.09.2-.09s.14.03.14.09c-.13,1.38-.2,2.51-.2,3.39,0,.15-.03.26-.09.33-.06.07-.17.1-.35.1h-10.82s-.06-.06-.06-.17Zm7.78-6.16c-.83-.11-2.26-.17-4.27-.17v-.72c2.01,0,3.44-.05,4.27-.16.83-.11,1.3-.16,1.4-.16.13,0,.2.21.2.63,0,.19-.02.36-.06.52-.04.15-.09.23-.14.23-.1,0-.56-.06-1.4-.17Z"/>
    <path class="cls-1" d="m116.88,25.95c-1.14-.64-2.01-1.49-2.6-2.55-.59-1.05-.89-2.17-.89-3.34,0-1.5.34-2.8,1.02-3.9.68-1.1,1.64-1.95,2.89-2.53,1.25-.59,2.71-.88,4.4-.88.84,0,1.65.08,2.43.23.78.15,1.42.37,1.94.66.13.06.22.12.24.2.03.08.05.22.07.43l.14,2.7c0,.06-.05.09-.16.1-.11.01-.17-.01-.19-.07-1.48-2.42-3.19-3.62-5.15-3.63-1.36,0-2.43.55-3.21,1.64-.78,1.09-1.17,2.65-1.17,4.66s.44,3.54,1.32,4.75c.88,1.21,2.08,1.81,3.6,1.81.77,0,1.33-.08,1.68-.24.35-.16.59-.47.72-.92.12-.45.19-1.16.19-2.14,0-.5-.04-.85-.11-1.05-.08-.2-.24-.34-.49-.4-.25-.07-.68-.1-1.29-.1-.12,0-.17-.08-.17-.23,0-.06.01-.11.04-.16.03-.05.06-.07.1-.07,1,.08,2,.11,3.02.11.46,0,1.23-.02,2.3-.06.04,0,.07.02.1.07.03.05.04.09.04.13,0,.13-.05.2-.14.2-.29-.02-.49.01-.6.09-.12.08-.19.23-.23.47-.04.24-.06.67-.06,1.28,0,.86.02,1.47.07,1.81.05.35.07.59.07.72,0,.11-.02.19-.06.22-.04.03-.13.07-.29.13-1.29.54-3.15.81-5.58.81-1.53,0-2.87-.32-4.01-.96Z"/>
    <path class="cls-1" d="m144.54,26.39c0,.11-.05.17-.14.17-.4,0-1.01-.02-1.81-.06-.84-.04-1.44-.06-1.78-.06-.33,0-.83.02-1.52.06-.65.04-1.11.06-1.38.06-.08,0-.12-.06-.12-.17s.04-.17.12-.17c.44,0,.75-.05.94-.16.18-.11.27-.26.27-.47,0-.27-.16-.75-.49-1.44l-3.65-7.85,1.27-2.21-3.77,8.95c-.35.81-.52,1.44-.52,1.9s.16.79.49.99c.33.2.83.3,1.52.3.1,0,.14.06.14.17s-.05.17-.14.17c-.27,0-.65-.02-1.15-.06-.54-.04-1.04-.06-1.5-.06s-1.05.02-1.7.06c-.58.04-1.05.06-1.41.06-.1,0-.14-.06-.14-.17s.05-.17.14-.17c.59,0,1.07-.09,1.44-.26.36-.17.7-.5,1.02-.98.32-.48.69-1.22,1.11-2.21l4.32-10.1c.04-.08.1-.11.17-.11s.13.04.17.11l4.6,9.95c.48,1.04.88,1.8,1.19,2.3.32.5.64.84.96,1.02.33.18.73.27,1.21.27.1,0,.14.06.14.17Zm-10.99-6.7h5.26s.2.75.2.75h-5.9s.43-.75.43-.75Z"/>
    <path class="cls-1" d="m149.95,25.27c.1.25.28.43.56.53.28.11.69.16,1.25.16h.32c1.09,0,2.09-.35,2.99-1.06.9-.71,1.56-1.67,1.99-2.88.02-.04.08-.05.19-.04.11,0,.16.03.16.07-.13,1.02-.2,2.38-.2,4.08,0,.15-.03.26-.1.33-.07.07-.19.1-.36.1h-11.51s-.06-.06-.06-.17.02-.17.06-.17c.5,0,.86-.05,1.09-.14.23-.1.39-.28.47-.56.09-.28.13-.7.13-1.28v-8.8c0-.58-.04-1-.13-1.27-.09-.27-.24-.46-.47-.56-.23-.11-.59-.16-1.09-.16-.04,0-.06-.06-.06-.17s.02-.17.06-.17l1.41.03c.81.04,1.43.06,1.87.06.5,0,1.15-.02,1.96-.06l1.32-.03c.06,0,.09.06.09.17s-.03.17-.09.17c-.58,0-1,.05-1.28.16-.28.11-.47.3-.56.58-.1.28-.14.7-.14,1.28v8.66c0,.52.05.9.14,1.15Z"/>
    <path class="cls-1" d="m173.89,13.28c.67.35,1.01.9,1.01,1.67,0,.67-.24,1.24-.72,1.7-.48.46-1.21,1-2.19,1.61-.75.46-1.36.87-1.83,1.24-.47.36-.87.81-1.19,1.34-.33.53-.49,1.14-.49,1.83,0,1.02.34,1.8,1.01,2.36.67.56,1.51.83,2.5.83.94,0,1.72-.23,2.33-.7.61-.47,1.06-1.05,1.35-1.74.29-.69.43-1.35.43-1.99,0-.69-.17-1.23-.52-1.61-.35-.38-.8-.58-1.35-.58-.06,0-.09-.06-.1-.17,0-.11.02-.17.1-.17l5.47-.03c.08,0,.12.06.12.17s-.04.17-.12.17c-.5,0-.87.06-1.11.17-.24.12-.4.26-.49.45-.09.18-.21.5-.36.96-.48,1.63-1.31,3.06-2.49,4.29-1.18,1.23-2.86,1.84-5.05,1.84-1.44,0-2.54-.29-3.31-.88-.77-.58-1.15-1.29-1.15-2.11,0-.73.26-1.38.79-1.94.53-.57,1.32-1.22,2.37-1.97,1.15-.82,2.02-1.57,2.62-2.23.59-.66.89-1.44.89-2.34,0-.61-.15-1.12-.45-1.52-.3-.4-.65-.6-1.05-.6-.35,0-.62.14-.82.42-.2.28-.3.67-.3,1.17,0,1.13.47,2.43,1.42,3.9.95,1.47,2.19,2.87,3.73,4.21,1.09.96,2.14,1.72,3.15,2.27,1.01.56,1.77.87,2.29.95.04,0,.06.06.06.17s-.02.17-.06.17h-4.06c-.36,0-.93-.24-1.68-.72-.76-.48-1.62-1.16-2.57-2.04-.9-.82-1.77-1.72-2.6-2.68-.83-.96-1.42-1.8-1.77-2.53-.35-.77-.52-1.47-.52-2.1,0-.75.21-1.4.63-1.97.42-.57.97-1,1.65-1.31.68-.31,1.41-.46,2.2-.46s1.54.17,2.22.52Z"/>
    <path class="cls-1" d="m199.7,17.05c.99.42,1.75,1.01,2.29,1.75.54.75.81,1.6.81,2.56s-.29,1.9-.86,2.7c-.58.81-1.37,1.44-2.39,1.91-1.02.47-2.15.71-3.39.7-.54,0-1.15-.03-1.84-.09-.27-.02-.6-.04-.99-.06-.39-.02-.83-.03-1.31-.03l-2.1.03c-.38.02-.9.03-1.55.03-.06,0-.09-.06-.09-.17s.03-.17.09-.17c.56,0,.98-.05,1.27-.16.29-.11.49-.3.62-.58.12-.28.19-.7.19-1.25v-13.32c0-.81-.13-1.34-.4-1.6-.27-.26-.82-.39-1.64-.39-.04,0-.06-.06-.06-.17s.02-.17.06-.17l1.52.03c.88.04,1.58.06,2.1.06s1.09-.03,1.67-.09c.19-.02.48-.04.86-.06.38-.02.72-.03,1.01-.03,1.74,0,3.1.32,4.06.95.96.63,1.44,1.55,1.44,2.76,0,1.11-.44,2.1-1.31,2.95-.87.85-2.12,1.44-3.75,1.77l.32-.52c1.28,0,2.42.21,3.41.63Zm-5.74-7.52c-.21.26-.32.74-.32,1.45v5.64s-1.06-.2-1.06-.2c.84.04,1.58.06,2.22.06,1,0,1.76-.37,2.3-1.12.54-.75.81-1.71.81-2.88,0-1.09-.24-1.92-.72-2.49-.48-.57-1.17-.85-2.07-.85-.56,0-.94.13-1.15.39Zm5.47,12.53c0-1.48-.35-2.65-1.06-3.51-.71-.86-1.78-1.29-3.22-1.29-.94,0-1.75.06-2.45.17l.95-.35v7.16c0,.63.12,1.08.37,1.34.25.26.8.39,1.64.39,2.51,0,3.77-1.3,3.77-3.91Z"/>
    <path class="cls-1" d="m216.99,14.18c-.39-.49-1.01-.73-1.86-.73-.06,0-.09-.06-.09-.17s.03-.17.09-.17l1.21.03c.65.04,1.18.06,1.58.06.31,0,.77-.02,1.38-.06l1.18-.03s.06.06.06.17-.02.17-.06.17c-.77,0-1.32.24-1.67.72-.35.48-.52,1.24-.52,2.27v4.83c0,1.78-.49,3.17-1.47,4.17-.98,1-2.3,1.5-3.97,1.5-1.07,0-2.07-.22-2.98-.65-.91-.43-1.64-1.05-2.19-1.86-.55-.81-.82-1.76-.82-2.88v-6.13c0-.58-.04-1-.13-1.27-.09-.27-.26-.46-.52-.56-.26-.11-.66-.16-1.19-.16-.06,0-.09-.06-.09-.17s.03-.17.09-.17l1.38.03c.77.04,1.38.06,1.84.06.52,0,1.16-.02,1.93-.06l1.38-.03s.06.06.06.17-.02.17-.06.17c-.54,0-.93.06-1.19.17-.26.12-.44.31-.53.59-.1.28-.14.7-.14,1.28v5.32c0,1.71.37,2.96,1.11,3.75.74.8,1.7,1.19,2.89,1.19s2.13-.38,2.83-1.15c.7-.77,1.05-1.86,1.05-3.28v-4.89c0-1.02-.2-1.77-.59-2.26Z"/>
    <path class="cls-1" d="m225.19,16.63c.3.39.66.73,1.09,1.01.43.28,1.02.61,1.77.99.86.46,1.54.85,2.03,1.16.49.32.91.72,1.27,1.22.35.5.53,1.09.53,1.78,0,.77-.23,1.46-.68,2.09-.45.62-1.07,1.12-1.86,1.48-.79.36-1.67.55-2.65.55-.88,0-1.74-.11-2.57-.33-.83-.22-1.41-.46-1.74-.73-.15-.1-.23-.3-.23-.6l-.14-3.25c0-.08.05-.12.14-.14.1-.02.16,0,.2.09.73,1.27,1.47,2.3,2.22,3.11s1.6,1.21,2.56,1.21c.58,0,1.05-.17,1.44-.52.38-.35.58-.86.58-1.55,0-.61-.16-1.15-.47-1.61-.32-.46-.7-.85-1.17-1.16s-1.07-.69-1.84-1.11c-1.13-.61-1.99-1.19-2.59-1.74-.59-.55-.89-1.26-.89-2.14,0-1.11.49-2,1.47-2.66.98-.66,2.16-.99,3.54-.99.61,0,1.26.07,1.93.2.67.13,1.21.29,1.61.46.17.06.29.13.35.22.06.09.09.21.09.36v2.73c0,.06-.05.1-.14.13-.1.03-.16.01-.2-.04-.36-.77-.87-1.52-1.52-2.27-.65-.75-1.52-1.12-2.59-1.12-.65,0-1.14.17-1.47.5-.33.34-.49.77-.49,1.31s.15,1,.45,1.4Z"/>
    <path class="cls-1" d="m238.73,25.52c.1.28.27.47.52.56.25.1.65.14,1.21.14.04,0,.06.06.06.17s-.02.17-.06.17c-.59,0-1.06,0-1.38-.03l-1.96-.03-1.87.03c-.35.02-.82.03-1.44.03-.04,0-.06-.06-.06-.17s.02-.17.06-.17c.56,0,.96-.05,1.22-.14.26-.1.44-.28.53-.56.1-.28.14-.7.14-1.28v-8.8c0-.58-.05-1-.14-1.27-.1-.27-.27-.46-.53-.56-.26-.11-.67-.16-1.22-.16-.04,0-.06-.06-.06-.17s.02-.17.06-.17l1.44.03c.77.04,1.39.06,1.87.06.52,0,1.18-.02,1.99-.06l1.35-.03s.06.06.06.17-.02.17-.06.17c-.54,0-.94.06-1.19.17-.26.12-.44.31-.53.59-.1.28-.14.7-.14,1.28v8.75c0,.58.05,1,.14,1.28Z"/>
    <path class="cls-1" d="m255.04,26.97c-.1.02-.16,0-.2-.03l-10.18-11.48c-.65-.73-1.2-1.25-1.65-1.55-.45-.31-.89-.46-1.31-.46-.04,0-.06-.06-.06-.17s.02-.17.06-.17l1.61.03c.15,0,.36,0,.63-.01.27,0,.95-.01,2.04-.01.15,0,.28.05.39.14.11.1.27.28.5.55.15.23.36.5.63.81l7.36,8.23.32,4.06s-.05.07-.14.09Zm-10.84-13.23l.55.09v9.09c0,1.13.18,1.97.53,2.5.35.54.91.81,1.65.81.06,0,.09.06.09.17s-.03.17-.09.17c-.46,0-.82,0-1.06-.03l-1.38-.03-1.38.03c-.27.02-.65.03-1.15.03-.04,0-.06-.06-.06-.17s.02-.17.06-.17c.77,0,1.33-.27,1.7-.81.36-.54.55-1.37.55-2.5v-9.18Zm10.99,13.15l-.58-.89v-9.21c0-1.15-.17-1.99-.52-2.53-.35-.54-.9-.81-1.67-.81-.04,0-.06-.06-.06-.17s.02-.17.06-.17l1.09.03c.58.04,1.03.06,1.35.06s.8-.02,1.41-.06l1.15-.03c.06,0,.09.06.09.17s-.03.17-.09.17c-.77,0-1.33.27-1.7.81-.36.54-.55,1.38-.55,2.53v10.1Z"/>
    <path class="cls-1" d="m258.52,26.4c0-.12.02-.17.06-.17.56,0,.96-.05,1.21-.14.25-.1.42-.28.52-.56.1-.28.14-.7.14-1.28v-8.8c0-.58-.05-1-.14-1.27-.1-.27-.27-.46-.53-.56-.26-.11-.66-.16-1.19-.16-.04,0-.06-.06-.06-.17s.02-.17.06-.17h10.3c.19,0,.29.08.29.23l.03,1.78c.02.36.03.82.03,1.38,0,.06-.05.09-.16.09s-.17-.03-.19-.09c-.36-.84-.92-1.56-1.67-2.14-.75-.58-1.51-.88-2.27-.88h-.2c-.42,0-.73.05-.94.16-.2.11-.34.29-.4.56-.07.27-.1.69-.1,1.27v8.66c0,.58.03,1,.1,1.27.07.27.2.46.4.56.2.11.51.16.93.16h.32c.9,0,1.79-.32,2.68-.96.88-.64,1.53-1.44,1.96-2.4.04-.06.11-.09.2-.09s.14.03.14.09c-.13,1.38-.2,2.51-.2,3.39,0,.15-.03.26-.09.33-.06.07-.17.1-.35.1h-10.82s-.06-.06-.06-.17Zm7.78-6.16c-.83-.11-2.26-.17-4.27-.17v-.72c2.01,0,3.44-.05,4.27-.16.83-.11,1.3-.16,1.4-.16.13,0,.2.21.2.63,0,.19-.02.36-.06.52-.04.15-.09.23-.14.23-.1,0-.56-.06-1.4-.17Z"/>
    <path class="cls-1" d="m275.62,16.63c.3.39.66.73,1.09,1.01.43.28,1.02.61,1.77.99.86.46,1.54.85,2.03,1.16.49.32.91.72,1.27,1.22.35.5.53,1.09.53,1.78,0,.77-.23,1.46-.68,2.09-.45.62-1.07,1.12-1.86,1.48-.79.36-1.67.55-2.65.55-.88,0-1.74-.11-2.57-.33-.83-.22-1.41-.46-1.74-.73-.15-.1-.23-.3-.23-.6l-.14-3.25c0-.08.05-.12.14-.14.1-.02.16,0,.2.09.73,1.27,1.47,2.3,2.22,3.11s1.6,1.21,2.56,1.21c.58,0,1.05-.17,1.44-.52.38-.35.58-.86.58-1.55,0-.61-.16-1.15-.47-1.61-.32-.46-.7-.85-1.17-1.16s-1.07-.69-1.84-1.11c-1.13-.61-1.99-1.19-2.59-1.74-.59-.55-.89-1.26-.89-2.14,0-1.11.49-2,1.47-2.66.98-.66,2.16-.99,3.54-.99.61,0,1.26.07,1.93.2.67.13,1.21.29,1.61.46.17.06.29.13.35.22.06.09.09.21.09.36v2.73c0,.06-.05.1-.14.13-.1.03-.16.01-.2-.04-.36-.77-.87-1.52-1.52-2.27-.65-.75-1.52-1.12-2.59-1.12-.65,0-1.14.17-1.47.5-.33.34-.49.77-.49,1.31s.15,1,.45,1.4Z"/>
    <path class="cls-1" d="m287.76,16.63c.3.39.66.73,1.09,1.01.43.28,1.02.61,1.77.99.86.46,1.54.85,2.03,1.16.49.32.91.72,1.27,1.22.35.5.53,1.09.53,1.78,0,.77-.23,1.46-.68,2.09-.45.62-1.07,1.12-1.86,1.48-.79.36-1.67.55-2.65.55-.88,0-1.74-.11-2.57-.33-.83-.22-1.41-.46-1.74-.73-.15-.1-.23-.3-.23-.6l-.14-3.25c0-.08.05-.12.14-.14.1-.02.16,0,.2.09.73,1.27,1.47,2.3,2.22,3.11s1.6,1.21,2.56,1.21c.58,0,1.05-.17,1.44-.52.38-.35.58-.86.58-1.55,0-.61-.16-1.15-.47-1.61-.32-.46-.7-.85-1.17-1.16s-1.07-.69-1.84-1.11c-1.13-.61-1.99-1.19-2.59-1.74-.59-.55-.89-1.26-.89-2.14,0-1.11.49-2,1.47-2.66.98-.66,2.16-.99,3.54-.99.61,0,1.26.07,1.93.2.67.13,1.21.29,1.61.46.17.06.29.13.35.22.06.09.09.21.09.36v2.73c0,.06-.05.1-.14.13-.1.03-.16.01-.2-.04-.36-.77-.87-1.52-1.52-2.27-.65-.75-1.52-1.12-2.59-1.12-.65,0-1.14.17-1.47.5-.33.34-.49.77-.49,1.31s.15,1,.45,1.4Z"/>
    <path class="cls-1" d="m89.91,59.98c.13.28.39.47.76.59.37.11.97.17,1.8.17.06,0,.09.06.09.17s-.03.17-.09.17c-.79,0-1.4,0-1.84-.03l-2.5-.03-2.1.03c-.38.02-.9.03-1.55.03-.06,0-.09-.06-.09-.17s.03-.17.09-.17c.61,0,1.06-.05,1.34-.14.28-.1.46-.28.56-.56.1-.28.14-.7.14-1.28v-13.32c0-.58-.05-1-.14-1.27-.1-.27-.29-.46-.58-.56-.29-.11-.73-.16-1.32-.16-.06,0-.09-.06-.09-.17s.03-.17.09-.17l1.52.03c.88.04,1.58.06,2.1.06.46,0,1.01-.03,1.64-.09.25-.02.57-.04.95-.06.38-.02.82-.03,1.32-.03,1.96,0,3.5.41,4.63,1.22,1.13.82,1.7,2.08,1.7,3.78,0,1.19-.31,2.2-.92,3.02-.61.82-1.41,1.45-2.37,1.87-.97.42-1.96.63-2.98.63-.52,0-.97-.05-1.35-.14-.04,0-.06-.05-.06-.14,0-.06.01-.11.04-.17s.06-.08.1-.06c.29.08.61.12.98.12.88,0,1.62-.41,2.2-1.24.58-.82.88-1.99.88-3.51s-.32-2.68-.96-3.51c-.64-.82-1.58-1.24-2.8-1.24-.54,0-.9.12-1.09.37-.19.25-.29.74-.29,1.47v13.15c0,.61.07,1.06.2,1.34Z"/>
    <path class="cls-1" d="m113.9,60.91c0,.11-.05.17-.14.17-.4,0-1.01-.02-1.81-.06-.84-.04-1.44-.06-1.78-.06-.33,0-.83.02-1.52.06-.65.04-1.11.06-1.38.06-.08,0-.12-.06-.12-.17s.04-.17.12-.17c.44,0,.75-.05.94-.16.18-.11.27-.26.27-.47,0-.27-.16-.75-.49-1.44l-3.65-7.85,1.27-2.21-3.77,8.95c-.35.81-.52,1.44-.52,1.9s.16.79.49.99c.33.2.83.3,1.52.3.1,0,.14.06.14.17s-.05.17-.14.17c-.27,0-.65-.02-1.15-.06-.54-.04-1.04-.06-1.5-.06s-1.05.02-1.7.06c-.58.04-1.05.06-1.41.06-.1,0-.14-.06-.14-.17s.05-.17.14-.17c.59,0,1.07-.09,1.44-.26.36-.17.7-.5,1.02-.98.32-.48.69-1.22,1.11-2.21l4.32-10.1c.04-.08.1-.11.17-.11s.13.04.17.11l4.6,9.95c.48,1.04.88,1.8,1.19,2.3.32.5.64.84.96,1.02.33.18.73.27,1.21.27.1,0,.14.06.14.17Zm-10.99-6.7h5.26s.2.75.2.75h-5.9s.43-.75.43-.75Z"/>
    <path class="cls-1" d="m121.27,60.91c0,.11-.02.17-.06.17-.58,0-1.03,0-1.35-.03l-1.96-.03-1.87.03c-.35.02-.82.03-1.44.03-.04,0-.06-.06-.06-.17s.02-.17.06-.17c.54,0,.93-.05,1.18-.14.25-.1.42-.28.52-.56.1-.28.14-.7.14-1.28v-8.8c0-.58-.04-1-.13-1.27-.09-.27-.25-.46-.5-.56-.25-.11-.63-.16-1.15-.16-.06,0-.09-.06-.09-.17s.03-.17.09-.17l1.41.03c.77.04,1.38.06,1.84.06.36,0,.7,0,1.01-.03.31-.02.58-.04.81-.06.63-.06,1.23-.09,1.78-.09,1.5,0,2.64.24,3.42.72.79.48,1.18,1.17,1.18,2.07,0,.79-.27,1.52-.82,2.19-.55.67-1.29,1.2-2.24,1.6-.95.39-1.99.59-3.12.59-.61,0-1.14-.04-1.58-.11l-.03-.63c.48.13,1.08.2,1.81.2,1.09,0,1.85-.25,2.27-.76.42-.51.63-1.27.63-2.29,0-1.99-.73-2.99-2.19-2.99-.4,0-.7.05-.89.14-.19.1-.33.27-.4.53-.08.26-.12.67-.12,1.22v8.75c0,.59.04,1.03.13,1.29.09.27.25.45.49.55.24.1.63.14,1.17.14.04,0,.06.06.06.17Zm8.83,0c0,.11-.03.17-.09.17h-4.72c-.29,0-.82-.6-1.58-1.8-.77-1.2-1.67-2.82-2.7-4.88l2.3-.6c1.05,1.78,1.96,3.17,2.72,4.17.76,1,1.45,1.71,2.07,2.13.62.42,1.26.63,1.91.63.06,0,.09.06.09.17Z"/>
    <path class="cls-1" d="m131.06,49.12c-.66.61-1.18,1.45-1.57,2.5-.02.06-.08.09-.17.09s-.14-.03-.14-.09c.08-.61.16-1.41.26-2.4.1-.99.14-1.73.14-2.23,0-.1.05-.14.16-.14s.16.05.16.14c0,.25.14.41.43.47.29.07.65.1,1.09.1,1.65.04,3.1.06,4.34.06l2.5-.03c.33-.02.77-.03,1.32-.03.75,0,1.31-.04,1.68-.13.37-.09.61-.27.7-.56.02-.06.08-.09.19-.09s.16.03.16.09l-.09,1.44c-.12,1.69-.17,2.79-.17,3.31,0,.06-.06.09-.17.09s-.17-.03-.17-.09c-.1-.59-.32-1.16-.66-1.68-.35-.53-.75-.95-1.22-1.27-.47-.32-.94-.47-1.42-.47s-.77.12-.92.36c-.15.24-.23.71-.23,1.4v8.8c0,.58.05,1,.16,1.28.11.28.3.47.59.56.29.1.75.14,1.38.14.06,0,.09.06.09.17s-.03.17-.09.17c-.63,0-1.13,0-1.5-.03l-2.16-.03-2.1.03c-.36.02-.88.03-1.55.03-.04,0-.06-.06-.06-.17s.02-.17.06-.17c.65,0,1.13-.05,1.42-.14.3-.1.5-.28.6-.56.11-.28.16-.7.16-1.28v-8.86c0-.71-.07-1.17-.2-1.38-.13-.21-.44-.32-.92-.32-.73,0-1.42.31-2.09.92Z"/>
    <path class="cls-1" d="m156.45,61.49c-.1.02-.16,0-.2-.03l-10.18-11.48c-.65-.73-1.2-1.25-1.65-1.55-.45-.31-.89-.46-1.31-.46-.04,0-.06-.06-.06-.17s.02-.17.06-.17l1.61.03c.15,0,.36,0,.63-.01.27,0,.95-.01,2.04-.01.15,0,.28.05.39.14.11.1.27.28.5.55.15.23.36.5.63.81l7.36,8.23.32,4.06s-.05.07-.14.09Zm-10.84-13.23l.55.09v9.09c0,1.13.18,1.97.53,2.5.35.54.91.81,1.65.81.06,0,.09.06.09.17s-.03.17-.09.17c-.46,0-.82,0-1.06-.03l-1.38-.03-1.38.03c-.27.02-.65.03-1.15.03-.04,0-.06-.06-.06-.17s.02-.17.06-.17c.77,0,1.33-.27,1.7-.81.36-.54.55-1.37.55-2.5v-9.18Zm10.99,13.15l-.58-.89v-9.21c0-1.15-.17-1.99-.52-2.53-.35-.54-.9-.81-1.67-.81-.04,0-.06-.06-.06-.17s.02-.17.06-.17l1.09.03c.58.04,1.03.06,1.35.06s.8-.02,1.41-.06l1.15-.03c.06,0,.09.06.09.17s-.03.17-.09.17c-.77,0-1.33.27-1.7.81-.36.54-.55,1.38-.55,2.53v10.1Z"/>
    <path class="cls-1" d="m159.93,60.92c0-.12.02-.17.06-.17.56,0,.96-.05,1.21-.14.25-.1.42-.28.52-.56.1-.28.14-.7.14-1.28v-8.8c0-.58-.05-1-.14-1.27-.1-.27-.27-.46-.53-.56-.26-.11-.66-.16-1.19-.16-.04,0-.06-.06-.06-.17s.02-.17.06-.17h10.3c.19,0,.29.08.29.23l.03,1.78c.02.36.03.82.03,1.38,0,.06-.05.09-.16.09s-.17-.03-.19-.09c-.36-.84-.92-1.56-1.67-2.14-.75-.58-1.51-.88-2.27-.88h-.2c-.42,0-.73.05-.94.16-.2.11-.34.29-.4.56-.07.27-.1.69-.1,1.27v8.66c0,.58.03,1,.1,1.27.07.27.2.46.4.56.2.11.51.16.93.16h.32c.9,0,1.79-.32,2.68-.96.88-.64,1.53-1.44,1.96-2.4.04-.06.11-.09.2-.09s.14.03.14.09c-.13,1.38-.2,2.51-.2,3.39,0,.15-.03.26-.09.33-.06.07-.17.1-.35.1h-10.82s-.06-.06-.06-.17Zm7.78-6.16c-.83-.11-2.26-.17-4.27-.17v-.72c2.01,0,3.44-.05,4.27-.16.83-.11,1.3-.16,1.4-.16.13,0,.2.21.2.63,0,.19-.02.36-.06.52-.04.15-.09.23-.14.23-.1,0-.56-.06-1.4-.17Z"/>
    <path class="cls-1" d="m180.01,60.92c0,.11-.02.17-.06.17-.58,0-1.03,0-1.35-.03l-1.96-.03-1.87.03c-.35.02-.82.03-1.44.03-.04,0-.06-.06-.06-.17s.02-.17.06-.17c.54,0,.93-.05,1.18-.14.25-.1.42-.28.52-.56.1-.28.14-.7.14-1.28v-8.8c0-.58-.04-1-.13-1.27-.09-.27-.25-.46-.5-.56-.25-.11-.63-.16-1.15-.16-.06,0-.09-.06-.09-.17s.03-.17.09-.17l1.41.03c.77.04,1.38.06,1.84.06.36,0,.7,0,1.01-.03.31-.02.58-.04.81-.06.63-.06,1.23-.09,1.78-.09,1.5,0,2.64.24,3.42.72.79.48,1.18,1.17,1.18,2.07,0,.79-.27,1.52-.82,2.19-.55.67-1.29,1.2-2.24,1.6-.95.39-1.99.59-3.12.59-.61,0-1.14-.04-1.58-.11l-.03-.63c.48.13,1.08.2,1.81.2,1.09,0,1.85-.25,2.27-.76.42-.51.63-1.27.63-2.29,0-1.99-.73-2.99-2.19-2.99-.4,0-.7.05-.89.14-.19.1-.33.27-.4.53-.08.26-.12.67-.12,1.22v8.75c0,.59.04,1.03.13,1.29.09.27.25.45.49.55.24.1.63.14,1.17.14.04,0,.06.06.06.17Zm8.83,0c0,.11-.03.17-.09.17h-4.72c-.29,0-.82-.6-1.58-1.8-.77-1.2-1.67-2.82-2.7-4.88l2.3-.6c1.05,1.78,1.96,3.17,2.72,4.17.76,1,1.45,1.71,2.07,2.13.62.42,1.26.63,1.91.63.06,0,.09.06.09.17Z"/>
    <path class="cls-1" d="m192.77,51.15c.3.39.66.73,1.09,1.01.43.28,1.02.61,1.77.99.86.46,1.54.85,2.03,1.16.49.32.91.72,1.27,1.22.35.5.53,1.09.53,1.78,0,.77-.23,1.46-.68,2.09-.45.62-1.07,1.12-1.86,1.48-.79.36-1.67.55-2.65.55-.88,0-1.74-.11-2.57-.33-.83-.22-1.41-.46-1.74-.73-.15-.1-.23-.3-.23-.6l-.14-3.25c0-.08.05-.12.14-.14.1-.02.16,0,.2.09.73,1.27,1.47,2.3,2.22,3.11s1.6,1.21,2.56,1.21c.58,0,1.05-.17,1.44-.52.38-.35.58-.86.58-1.55,0-.61-.16-1.15-.47-1.61-.32-.46-.7-.85-1.17-1.16s-1.07-.69-1.84-1.11c-1.13-.61-1.99-1.19-2.59-1.74-.59-.55-.89-1.26-.89-2.14,0-1.11.49-2,1.47-2.66.98-.66,2.16-.99,3.54-.99.61,0,1.26.07,1.93.2.67.13,1.21.29,1.61.46.17.06.29.13.35.22.06.09.09.21.09.36v2.73c0,.06-.05.1-.14.13-.1.03-.16.01-.2-.04-.36-.77-.87-1.52-1.52-2.27-.65-.75-1.52-1.12-2.59-1.12-.65,0-1.14.17-1.47.5-.33.34-.49.77-.49,1.31s.15,1,.45,1.4Z"/>
  </g>
</svg>