<?xml version="1.0" encoding="UTF-8"?>
<svg id="Calque_1" data-name="Calque 1" xmlns="http://www.w3.org/2000/svg" viewBox="0 0 300 70">
  <defs>
    <style>
      .cls-1 {
        fill: #fff;
      }

      .cls-2 {
        fill: #90162e;
      }
    </style>
  </defs>
  <g>
    <polygon class="cls-2" points="65.18 26.11 65.18 43.87 47.45 43.89 47.45 26.11 29.88 26.11 29.88 8.48 47.45 8.48 65.18 26.11"/>
    <path class="cls-2" d="m47.45,43.89l-.05,17.63-17.63-.05-17.67-17.69.11-35.26,17.61,17.53.06.06v.06s0,.03,0,.03c-.03,9.74,7.84,17.65,17.57,17.68h0Z"/>
  </g>
  <g>
    <path class="cls-1" d="m86.16,44c.09.26.26.43.52.52.26.09.67.13,1.25.13h1.13c1.73,0,3.23-.46,4.5-1.38,1.27-.92,2.11-2.17,2.53-3.75,0-.04.04-.07.13-.07.04,0,.09.02.15.05.06.03.08.06.08.08-.2,2.2-.3,4.03-.3,5.5,0,.18-.04.31-.12.38-.08.08-.21.12-.38.12h-15.74s-.07-.07-.07-.2.02-.2.07-.2c.71,0,1.23-.05,1.55-.17.32-.11.54-.33.67-.65.12-.32.18-.82.18-1.48v-15.44c0-.67-.06-1.16-.18-1.47-.12-.31-.35-.53-.68-.65-.33-.12-.84-.18-1.53-.18-.04,0-.07-.07-.07-.2s.02-.2.07-.2l1.7.03c1.02.04,1.87.07,2.53.07s1.51-.02,2.53-.07l1.7-.03c.07,0,.1.07.1.2s-.03.2-.1.2c-.69,0-1.2.06-1.53.18s-.56.34-.67.67c-.11.32-.17.82-.17,1.48v15.27c0,.58.04,1,.13,1.25Z"/>
    <path class="cls-1" d="m111.61,34.54c1.14.49,2.03,1.17,2.65,2.03.62.87.93,1.86.93,2.97s-.33,2.2-1,3.13c-.67.93-1.59,1.67-2.77,2.22-1.18.54-2.49.82-3.93.82-.62,0-1.33-.03-2.13-.1-.31-.02-.69-.04-1.15-.07s-.96-.03-1.52-.03l-2.43.03c-.44.02-1.04.03-1.8.03-.07,0-.1-.07-.1-.2s.03-.2.1-.2c.64,0,1.13-.06,1.47-.18s.57-.34.72-.67c.14-.32.22-.81.22-1.45v-15.44c0-.93-.16-1.55-.47-1.85-.31-.3-.94-.45-1.9-.45-.04,0-.07-.07-.07-.2s.02-.2.07-.2l1.77.03c1.02.04,1.83.07,2.43.07s1.27-.03,1.93-.1c.22-.02.56-.04,1-.07.44-.02.83-.03,1.17-.03,2.02,0,3.59.37,4.7,1.1,1.11.73,1.67,1.8,1.67,3.2,0,1.29-.51,2.43-1.52,3.42-1.01.99-2.46,1.67-4.35,2.05l.37-.6c1.49,0,2.81.25,3.95.73Zm-6.65-8.72c-.24.3-.37.86-.37,1.68v6.53l-1.23-.23c.98.04,1.83.07,2.57.07,1.16,0,2.04-.43,2.67-1.3.62-.87.93-1.98.93-3.33,0-1.27-.28-2.23-.83-2.88-.56-.66-1.36-.98-2.4-.98-.65,0-1.09.15-1.33.45Zm6.33,14.52c0-1.71-.41-3.07-1.23-4.07s-2.07-1.5-3.73-1.5c-1.09,0-2.03.07-2.83.2l1.1-.4v8.3c0,.73.14,1.25.43,1.55.29.3.92.45,1.9.45,2.91,0,4.37-1.51,4.37-4.53Z"/>
    <path class="cls-1" d="m139.97,44.3c.16.32.45.55.88.68.43.13,1.13.2,2.08.2.07,0,.1.07.1.2s-.03.2-.1.2c-.91,0-1.62-.01-2.13-.03l-2.9-.03-2.43.03c-.44.02-1.04.03-1.8.03-.07,0-.1-.07-.1-.2s.03-.2.1-.2c.71,0,1.23-.05,1.55-.17.32-.11.54-.33.65-.65.11-.32.17-.82.17-1.48v-15.44c0-.67-.06-1.16-.17-1.47-.11-.31-.33-.53-.67-.65-.33-.12-.85-.18-1.53-.18-.07,0-.1-.07-.1-.2s.03-.2.1-.2l1.77.03c1.02.04,1.83.07,2.43.07.53,0,1.17-.03,1.9-.1.29-.02.66-.04,1.1-.07.44-.02.96-.03,1.53-.03,2.27,0,4.06.47,5.37,1.42,1.31.94,1.97,2.41,1.97,4.38,0,1.38-.36,2.55-1.07,3.5-.71.96-1.63,1.68-2.75,2.17-1.12.49-2.27.73-3.45.73-.6,0-1.12-.05-1.57-.17-.04,0-.07-.05-.07-.17,0-.07.02-.13.05-.2.03-.07.07-.09.12-.07.33.09.71.13,1.13.13,1.02,0,1.87-.48,2.55-1.43.68-.96,1.02-2.31,1.02-4.07s-.37-3.11-1.12-4.07c-.75-.96-1.83-1.43-3.25-1.43-.62,0-1.04.14-1.27.43-.22.29-.33.86-.33,1.7v15.24c0,.71.08,1.23.23,1.55Z"/>
    <path class="cls-1" d="m173.11,45.38c0,.13-.06.2-.17.2-.45,0-1.13-.02-2.07-.07-.98-.04-1.68-.07-2.1-.07-.56,0-1.23.02-2.03.07-.76.04-1.36.07-1.8.07-.09,0-.13-.07-.13-.2s.04-.2.13-.2c.58,0,.99-.06,1.25-.18s.38-.34.38-.65c0-.38-.22-1.01-.67-1.9l-6.77-13.37,1.63-2.87-6.63,14.64c-.29.64-.43,1.25-.43,1.8,0,.8.28,1.42.85,1.87.57.45,1.33.67,2.28.67.11,0,.17.07.17.2s-.06.2-.17.2c-.4,0-.98-.02-1.73-.07-.84-.04-1.58-.07-2.2-.07s-1.32.02-2.17.07c-.76.04-1.37.07-1.83.07-.09,0-.13-.07-.13-.2s.04-.2.13-.2c.62,0,1.14-.13,1.57-.38.42-.26.84-.71,1.27-1.37.42-.66.92-1.63,1.5-2.92l7.23-15.9c.04-.07.14-.1.3-.1.18,0,.28.03.3.1l8.33,16.4c.78,1.58,1.42,2.67,1.93,3.27.51.6,1.04.9,1.6.9.11,0,.17.07.17.2Zm-16.3-10.7h6.87l.23.93h-7.6l.5-.93Z"/>
    <path class="cls-1" d="m187.73,25.76c1.12.75,1.68,1.78,1.68,3.12,0,1.09-.35,2.12-1.03,3.08-.69.97-1.59,1.75-2.7,2.33-1.11.59-2.26.88-3.43.88-.87,0-1.48-.01-1.83-.03v7.74c0,.69.05,1.19.17,1.5s.33.52.65.63.84.17,1.55.17c.04,0,.07.07.07.2s-.02.2-.07.2c-.73,0-1.31-.01-1.73-.03l-2.53-.03-2.43.03c-.44.02-1.04.03-1.8.03-.07,0-.1-.07-.1-.2s.03-.2.1-.2c.71,0,1.23-.05,1.55-.17s.54-.33.67-.65.18-.82.18-1.48v-15.44c0-.67-.06-1.16-.17-1.47-.11-.31-.33-.53-.67-.65-.33-.12-.84-.18-1.53-.18-.04,0-.07-.07-.07-.2s.02-.2.07-.2l1.77.03c1.02.04,1.83.07,2.43.07.67,0,1.38-.03,2.13-.1.24-.02.56-.04.95-.07.39-.02.85-.03,1.38-.03,2.04,0,3.63.37,4.75,1.12Zm-2.95.62c-.53-.69-1.3-1.03-2.3-1.03-.76,0-1.29.17-1.6.5-.31.33-.47.89-.47,1.67v6.67c.53.09,1.18.13,1.93.13.8,0,1.43-.12,1.9-.37.47-.24.81-.67,1.02-1.27.21-.6.32-1.45.32-2.53,0-1.82-.27-3.08-.8-3.77Zm2.97,16.34c-1.38-1.91-3.05-4.59-5-8.04l3.07-.97c1.84,2.91,3.38,5.18,4.62,6.8,1.23,1.62,2.33,2.81,3.28,3.55.96.74,1.89,1.12,2.8,1.12.04,0,.07.07.07.2s-.02.2-.07.2h-5.93c-.51,0-1.46-.96-2.83-2.87Z"/>
    <path class="cls-1" d="m195.15,30.68c-.02.07-.09.09-.2.08-.11-.01-.17-.05-.17-.12.09-.89.19-2.04.3-3.45.11-1.41.17-2.47.17-3.18,0-.11.06-.17.18-.17s.18.06.18.17c0,.49.63.73,1.9.73,1.91.07,4.15.1,6.7.1,1.31,0,2.7-.02,4.17-.07l2.27-.03c.84,0,1.46-.05,1.85-.17.39-.11.64-.33.75-.67.02-.09.09-.13.22-.13s.18.04.18.13c-.07.67-.14,1.73-.22,3.2s-.12,2.65-.12,3.53c0,.07-.06.1-.17.1s-.18-.03-.2-.1c-.33-1.71-.96-3-1.87-3.85s-2.03-1.28-3.37-1.28c-.64,0-1.07.14-1.28.42-.21.28-.32.81-.32,1.58v15.37c0,.69.07,1.19.2,1.5.13.31.39.52.77.63.38.11.98.17,1.8.17.07,0,.1.07.1.2s-.03.2-.1.2c-.8,0-1.43-.01-1.9-.03l-2.77-.03-2.7.03c-.47.02-1.11.03-1.93.03-.07,0-.1-.07-.1-.2s.03-.2.1-.2c.8,0,1.39-.05,1.78-.17s.66-.33.8-.65c.14-.32.22-.82.22-1.48v-15.44c0-.75-.1-1.27-.3-1.53-.2-.27-.61-.4-1.23-.4-2.65,0-4.55,1.72-5.7,5.17Z"/>
    <path class="cls-1" d="m235.97,46.21c-.1.02-.17.01-.22-.03l-16.44-18.7c-.78-.89-1.45-1.5-2-1.83-.56-.33-1.12-.5-1.7-.5-.04,0-.07-.07-.07-.2s.02-.2.07-.2l1.4.03c.29.02.71.03,1.27.03l2.53-.03c.31-.02.69-.03,1.13-.03.18,0,.31.04.4.13.09.09.24.28.47.57.38.51.64.86.8,1.03l12.24,14.1.27,5.5c0,.07-.05.11-.15.13Zm-16.85-20.71l1,.07v15.77c0,1.18.24,2.11.73,2.8.49.69,1.17,1.03,2.03,1.03.04,0,.07.07.07.2s-.02.2-.07.2c-.62,0-1.1-.01-1.43-.03l-1.8-.03-2.07.03c-.38.02-.92.03-1.63.03-.07,0-.1-.07-.1-.2s.03-.2.1-.2c.98,0,1.75-.34,2.32-1.03.57-.69.85-1.62.85-2.8v-15.84Zm17,20.57l-.97-1v-16.07c0-1.2-.25-2.14-.73-2.83-.49-.69-1.17-1.03-2.03-1.03-.04,0-.07-.07-.07-.2s.02-.2.07-.2l1.43.03c.71.04,1.31.07,1.8.07.45,0,1.07-.02,1.87-.07l1.5-.03s.07.07.07.2-.02.2-.07.2c-.89,0-1.59.35-2.1,1.05-.51.7-.77,1.64-.77,2.82v17.07Z"/>
    <path class="cls-1" d="m240.66,45.38c0-.13.03-.2.1-.2.71,0,1.23-.05,1.55-.17s.54-.33.65-.65.17-.82.17-1.48v-15.44c0-.67-.06-1.16-.17-1.47-.11-.31-.33-.53-.67-.65-.33-.12-.84-.18-1.53-.18-.07,0-.1-.07-.1-.2s.03-.2.1-.2h14.14c.22,0,.33.1.33.3l.07,4.43s-.06.08-.18.1c-.12.02-.19,0-.22-.07-.36-1.29-.96-2.24-1.8-2.87-.84-.62-1.96-.93-3.33-.93h-1c-.67,0-1.16.14-1.47.43s-.47.73-.47,1.33v15.27c0,.64.12,1.12.37,1.43.24.31.63.47,1.17.47h1.1c1.73,0,3.12-.36,4.17-1.07,1.04-.71,1.81-1.81,2.3-3.3,0-.04.04-.07.13-.07.07,0,.13.02.18.05.06.03.08.06.08.08-.22,1.73-.33,3.31-.33,4.73,0,.18-.03.31-.1.38-.07.08-.2.12-.4.12h-14.74c-.07,0-.1-.07-.1-.2Zm11.92-9.38c-.7-.52-1.71-.78-3.02-.78h-4.5v-.93h4.53c1.29,0,2.28-.22,2.97-.67.69-.44,1.03-1.07,1.03-1.87,0-.07.06-.1.18-.1s.18.03.18.1l-.03,3,.03,1.6c.04.76.07,1.36.07,1.8,0,.04-.07.07-.2.07s-.2-.02-.2-.07c0-.91-.35-1.63-1.05-2.15Z"/>
    <path class="cls-1" d="m272.61,25.76c1.12.75,1.68,1.78,1.68,3.12,0,1.09-.35,2.12-1.03,3.08-.69.97-1.59,1.75-2.7,2.33-1.11.59-2.26.88-3.43.88-.87,0-1.48-.01-1.83-.03v7.74c0,.69.05,1.19.17,1.5s.33.52.65.63.84.17,1.55.17c.04,0,.07.07.07.2s-.02.2-.07.2c-.73,0-1.31-.01-1.73-.03l-2.53-.03-2.43.03c-.44.02-1.04.03-1.8.03-.07,0-.1-.07-.1-.2s.03-.2.1-.2c.71,0,1.23-.05,1.55-.17s.54-.33.67-.65.18-.82.18-1.48v-15.44c0-.67-.06-1.16-.17-1.47-.11-.31-.33-.53-.67-.65-.33-.12-.84-.18-1.53-.18-.04,0-.07-.07-.07-.2s.02-.2.07-.2l1.77.03c1.02.04,1.83.07,2.43.07.67,0,1.38-.03,2.13-.1.24-.02.56-.04.95-.07.39-.02.85-.03,1.38-.03,2.04,0,3.63.37,4.75,1.12Zm-2.95.62c-.53-.69-1.3-1.03-2.3-1.03-.76,0-1.29.17-1.6.5-.31.33-.47.89-.47,1.67v6.67c.53.09,1.18.13,1.93.13.8,0,1.43-.12,1.9-.37.47-.24.81-.67,1.02-1.27.21-.6.32-1.45.32-2.53,0-1.82-.27-3.08-.8-3.77Zm2.97,16.34c-1.38-1.91-3.05-4.59-5-8.04l3.07-.97c1.84,2.91,3.38,5.18,4.62,6.8,1.23,1.62,2.33,2.81,3.28,3.55.96.74,1.89,1.12,2.8,1.12.04,0,.07.07.07.2s-.02.2-.07.2h-5.93c-.51,0-1.46-.96-2.83-2.87Z"/>
    <path class="cls-1" d="m286.88,30.24c.41.62.92,1.17,1.52,1.63.6.47,1.41,1.03,2.43,1.7,1.11.71,2,1.33,2.67,1.87s1.23,1.18,1.7,1.95c.47.77.7,1.65.7,2.65,0,1.16-.31,2.18-.93,3.08-.62.9-1.48,1.6-2.58,2.1-1.1.5-2.33.75-3.68.75-.98,0-2.02-.14-3.12-.42-1.1-.28-1.84-.58-2.22-.92-.11-.09-.19-.17-.25-.25-.06-.08-.08-.21-.08-.38l-.1-5.3v-.03c0-.09.06-.14.17-.15.11-.01.18.03.2.12.67,1.36,1.25,2.46,1.75,3.3s1.13,1.59,1.9,2.23c.77.65,1.64.97,2.62.97.89,0,1.62-.24,2.2-.72.58-.48.87-1.29.87-2.45,0-.98-.22-1.83-.65-2.57-.43-.73-.96-1.36-1.58-1.87-.62-.51-1.48-1.12-2.57-1.83-1.07-.69-1.9-1.28-2.48-1.77-.59-.49-1.1-1.08-1.52-1.77-.42-.69-.63-1.5-.63-2.43,0-1.18.34-2.17,1.02-2.98.68-.81,1.55-1.41,2.62-1.8,1.07-.39,2.19-.58,3.37-.58.78,0,1.57.07,2.37.22.8.15,1.44.32,1.93.52.2.09.33.18.4.28.07.1.1.23.1.38v4.9c0,.07-.06.12-.17.15-.11.03-.18.02-.2-.05l-.27-.63c-.56-1.4-1.21-2.59-1.95-3.57-.74-.98-1.78-1.47-3.12-1.47-.89,0-1.62.26-2.18.77-.57.51-.85,1.26-.85,2.23,0,.8.21,1.51.62,2.13Z"/>
  </g>
</svg>